<svg width="98" height="42" viewBox="0 0 98 42" fill="none" xmlns="http://www.w3.org/2000/svg">
<rect width="98" height="42" rx="4" fill="white"/>
<rect x="6.80645" y="7.80645" width="40.3871" height="26.3871" rx="1.14991" stroke="#A1A9B2" stroke-width="0.387097"/>
<rect x="19" y="13" width="15.4286" height="10.1504" rx="1.00318" fill="#A1A9B2"/>
<path d="M29.5719 20.349H23.4454C23.386 20.349 23.3379 20.3009 23.3379 20.2415V19.5041C23.3379 19.4235 23.3556 19.3436 23.3988 19.2756C23.5448 19.0457 23.9581 18.5218 24.6951 18.5218C25.6393 18.5218 26.0523 19.3817 26.0523 19.3817C26.0523 19.3817 26.7236 17.5007 28.2283 17.5007C28.9881 17.5007 29.5381 18.0882 29.6558 18.2249C29.6715 18.2432 29.6793 18.2662 29.6793 18.2903V20.2415C29.6793 20.3009 29.6312 20.349 29.5719 20.349Z" fill="white"/>
<circle cx="24.0903" cy="16.8023" r="0.752375" fill="white"/>
<rect x="22.249" y="25.5873" width="8.93233" height="0.81203" rx="0.406015" fill="#A1A9B2"/>
<rect x="24.2788" y="28.024" width="4.87218" height="0.81203" rx="0.406015" fill="#A1A9B2"/>
<rect x="50.8065" y="7.80645" width="40.3871" height="26.3871" rx="1.14991" stroke="#A1A9B2" stroke-width="0.387097"/>
<rect x="63" y="13" width="15.4286" height="10.1504" rx="1.00318" fill="#A1A9B2"/>
<path d="M73.5719 20.349H67.4454C67.386 20.349 67.3379 20.3009 67.3379 20.2415V19.5041C67.3379 19.4235 67.3556 19.3436 67.3988 19.2756C67.5448 19.0457 67.9581 18.5218 68.6951 18.5218C69.6393 18.5218 70.0523 19.3817 70.0523 19.3817C70.0523 19.3817 70.7236 17.5007 72.2283 17.5007C72.9881 17.5007 73.5381 18.0882 73.6558 18.2249C73.6715 18.2432 73.6793 18.2662 73.6793 18.2903V20.2415C73.6793 20.3009 73.6312 20.349 73.5719 20.349Z" fill="white"/>
<circle cx="68.0903" cy="16.8023" r="0.752375" fill="white"/>
<rect x="66.249" y="25.5873" width="8.93233" height="0.81203" rx="0.406015" fill="#A1A9B2"/>
<rect x="68.2788" y="28.024" width="4.87218" height="0.81203" rx="0.406015" fill="#A1A9B2"/>
</svg>
