<svg width="98" height="42" viewBox="0 0 98 42" fill="none" xmlns="http://www.w3.org/2000/svg">
<rect width="98" height="42" rx="4" fill="white"/>
<rect x="6.80645" y="7.80645" width="25.3871" height="26.3871" rx="1.14991" stroke="#A1A9B2" stroke-width="0.387097"/>
<rect x="12" y="13" width="15.4286" height="10.1504" rx="1.00318" fill="#A1A9B2"/>
<path d="M22.5719 20.349H16.4454C16.386 20.349 16.3379 20.3009 16.3379 20.2415V19.5041C16.3379 19.4235 16.3556 19.3436 16.3988 19.2756C16.5448 19.0457 16.9581 18.5218 17.6951 18.5218C18.6393 18.5218 19.0523 19.3817 19.0523 19.3817C19.0523 19.3817 19.7236 17.5007 21.2283 17.5007C21.9881 17.5007 22.5381 18.0882 22.6558 18.2249C22.6715 18.2432 22.6793 18.2662 22.6793 18.2903V20.2415C22.6793 20.3009 22.6312 20.349 22.5719 20.349Z" fill="white"/>
<circle cx="17.0903" cy="16.8023" r="0.752375" fill="white"/>
<rect x="15.249" y="25.5873" width="8.93233" height="0.81203" rx="0.406015" fill="#A1A9B2"/>
<rect x="17.2788" y="28.024" width="4.87218" height="0.81203" rx="0.406015" fill="#A1A9B2"/>
<rect x="35.8065" y="7.80645" width="25.3871" height="26.3871" rx="1.14991" stroke="#A1A9B2" stroke-width="0.387097"/>
<rect x="41" y="13" width="15.4286" height="10.1504" rx="1.00318" fill="#A1A9B2"/>
<path d="M51.5719 20.349H45.4454C45.386 20.349 45.3379 20.3009 45.3379 20.2415V19.5041C45.3379 19.4235 45.3556 19.3436 45.3988 19.2756C45.5448 19.0457 45.9581 18.5218 46.6951 18.5218C47.6393 18.5218 48.0523 19.3817 48.0523 19.3817C48.0523 19.3817 48.7236 17.5007 50.2283 17.5007C50.9881 17.5007 51.5381 18.0882 51.6558 18.2249C51.6715 18.2432 51.6793 18.2662 51.6793 18.2903V20.2415C51.6793 20.3009 51.6312 20.349 51.5719 20.349Z" fill="white"/>
<circle cx="46.0903" cy="16.8023" r="0.752375" fill="white"/>
<rect x="44.249" y="25.5873" width="8.93233" height="0.81203" rx="0.406015" fill="#A1A9B2"/>
<rect x="46.2788" y="28.024" width="4.87218" height="0.81203" rx="0.406015" fill="#A1A9B2"/>
<rect x="64.8065" y="7.80645" width="25.3871" height="26.3871" rx="1.14991" stroke="#A1A9B2" stroke-width="0.387097"/>
<rect x="70" y="13" width="15.4286" height="10.1504" rx="1.00318" fill="#A1A9B2"/>
<path d="M80.5719 20.349H74.4454C74.386 20.349 74.3379 20.3009 74.3379 20.2415V19.5041C74.3379 19.4235 74.3556 19.3436 74.3988 19.2756C74.5448 19.0457 74.9581 18.5218 75.6951 18.5218C76.6393 18.5218 77.0523 19.3817 77.0523 19.3817C77.0523 19.3817 77.7236 17.5007 79.2283 17.5007C79.9881 17.5007 80.5381 18.0882 80.6558 18.2249C80.6715 18.2432 80.6793 18.2662 80.6793 18.2903V20.2415C80.6793 20.3009 80.6312 20.349 80.5719 20.349Z" fill="white"/>
<circle cx="75.0903" cy="16.8023" r="0.752375" fill="white"/>
<rect x="73.249" y="25.5873" width="8.93233" height="0.81203" rx="0.406015" fill="#A1A9B2"/>
<rect x="75.2788" y="28.024" width="4.87218" height="0.81203" rx="0.406015" fill="#A1A9B2"/>
</svg>
