<svg width="98" height="42" viewBox="0 0 98 42" fill="none" xmlns="http://www.w3.org/2000/svg">
<rect width="98" height="42" rx="4" fill="white"/>
<rect x="6.80645" y="7.80645" width="18.3871" height="26.3871" rx="1.14991" stroke="#A1A9B2" stroke-width="0.387097"/>
<rect x="9" y="13.9987" width="14.4556" height="9.51024" rx="0.939912" fill="#A1A9B2"/>
<path d="M18.9048 20.884H13.1651C13.1095 20.884 13.0645 20.8389 13.0645 20.7833V20.0924C13.0645 20.0169 13.0811 19.9421 13.1215 19.8784C13.2583 19.663 13.6455 19.1722 14.336 19.1722C15.2205 19.1722 15.6075 19.9777 15.6075 19.9777C15.6075 19.9777 16.2363 18.2156 17.6461 18.2156C18.3579 18.2156 18.8732 18.766 18.9834 18.894C18.9982 18.9111 19.0055 18.9327 19.0055 18.9553V20.7833C19.0055 20.8389 18.9604 20.884 18.9048 20.884Z" fill="white"/>
<circle cx="13.7693" cy="17.5612" r="0.704865" fill="white"/>
<rect x="12.0439" y="25.7921" width="8.36828" height="0.760753" rx="0.380376" fill="#A1A9B2"/>
<rect x="13.9458" y="28.0753" width="4.56452" height="0.760753" rx="0.380376" fill="#A1A9B2"/>
<rect x="12.9395" y="25.5873" width="6.43128" height="0.81203" rx="0.406015" fill="#A1A9B2"/>
<rect x="14.4009" y="28.024" width="3.50797" height="0.81203" rx="0.406015" fill="#A1A9B2"/>
<rect x="28.8065" y="7.80645" width="18.3871" height="26.3871" rx="1.14991" stroke="#A1A9B2" stroke-width="0.387097"/>
<rect x="31" y="13.9987" width="14.4556" height="9.51024" rx="0.939912" fill="#A1A9B2"/>
<path d="M40.9048 20.884H35.1651C35.1095 20.884 35.0645 20.8389 35.0645 20.7833V20.0924C35.0645 20.0169 35.0811 19.9421 35.1215 19.8784C35.2583 19.663 35.6455 19.1722 36.336 19.1722C37.2205 19.1722 37.6075 19.9777 37.6075 19.9777C37.6075 19.9777 38.2363 18.2156 39.6461 18.2156C40.3579 18.2156 40.8732 18.766 40.9834 18.894C40.9982 18.9111 41.0055 18.9327 41.0055 18.9553V20.7833C41.0055 20.8389 40.9604 20.884 40.9048 20.884Z" fill="white"/>
<circle cx="35.7693" cy="17.5612" r="0.704865" fill="white"/>
<rect x="34.0439" y="25.7921" width="8.36828" height="0.760753" rx="0.380376" fill="#A1A9B2"/>
<rect x="35.9458" y="28.0753" width="4.56452" height="0.760753" rx="0.380376" fill="#A1A9B2"/>
<rect x="34.9395" y="25.5873" width="6.43128" height="0.81203" rx="0.406015" fill="#A1A9B2"/>
<rect x="36.4009" y="28.024" width="3.50797" height="0.81203" rx="0.406015" fill="#A1A9B2"/>
<rect x="50.8065" y="7.80645" width="18.3871" height="26.3871" rx="1.14991" stroke="#A1A9B2" stroke-width="0.387097"/>
<rect x="53" y="13.9987" width="14.4556" height="9.51024" rx="0.939912" fill="#A1A9B2"/>
<path d="M62.9048 20.884H57.1651C57.1095 20.884 57.0645 20.8389 57.0645 20.7833V20.0924C57.0645 20.0169 57.0811 19.9421 57.1215 19.8784C57.2583 19.663 57.6455 19.1722 58.336 19.1722C59.2205 19.1722 59.6075 19.9777 59.6075 19.9777C59.6075 19.9777 60.2363 18.2156 61.6461 18.2156C62.3579 18.2156 62.8732 18.766 62.9834 18.894C62.9982 18.9111 63.0055 18.9327 63.0055 18.9553V20.7833C63.0055 20.8389 62.9604 20.884 62.9048 20.884Z" fill="white"/>
<circle cx="57.7693" cy="17.5612" r="0.704865" fill="white"/>
<rect x="56.0439" y="25.7921" width="8.36828" height="0.760753" rx="0.380376" fill="#A1A9B2"/>
<rect x="57.9458" y="28.0753" width="4.56452" height="0.760753" rx="0.380376" fill="#A1A9B2"/>
<rect x="56.9395" y="25.5873" width="6.43128" height="0.81203" rx="0.406015" fill="#A1A9B2"/>
<rect x="58.4009" y="28.024" width="3.50797" height="0.81203" rx="0.406015" fill="#A1A9B2"/>
<rect x="72.8065" y="7.80645" width="18.3871" height="26.3871" rx="1.14991" stroke="#A1A9B2" stroke-width="0.387097"/>
<rect x="75" y="13.9987" width="14.4556" height="9.51024" rx="0.939912" fill="#A1A9B2"/>
<path d="M84.9048 20.884H79.1651C79.1095 20.884 79.0645 20.8389 79.0645 20.7833V20.0924C79.0645 20.0169 79.0811 19.9421 79.1215 19.8784C79.2583 19.663 79.6455 19.1722 80.336 19.1722C81.2205 19.1722 81.6075 19.9777 81.6075 19.9777C81.6075 19.9777 82.2363 18.2156 83.6461 18.2156C84.3579 18.2156 84.8732 18.766 84.9834 18.894C84.9982 18.9111 85.0055 18.9327 85.0055 18.9553V20.7833C85.0055 20.8389 84.9604 20.884 84.9048 20.884Z" fill="white"/>
<circle cx="79.7693" cy="17.5612" r="0.704865" fill="white"/>
<rect x="78.0439" y="25.7921" width="8.36828" height="0.760753" rx="0.380376" fill="#A1A9B2"/>
<rect x="79.9458" y="28.0753" width="4.56452" height="0.760753" rx="0.380376" fill="#A1A9B2"/>
<rect x="78.9395" y="25.5873" width="6.43128" height="0.81203" rx="0.406015" fill="#A1A9B2"/>
<rect x="80.4009" y="28.024" width="3.50797" height="0.81203" rx="0.406015" fill="#A1A9B2"/>
</svg>
