<svg width="80" height="80" viewBox="0 0 80 80" fill="none" xmlns="http://www.w3.org/2000/svg">
<g clip-path="url(#clip0_38_27)">
<path d="M62.8702 -0.113281C60.5585 -0.113281 58.6637 1.78153 58.6637 4.09321V23.8372C53.813 19.2138 47.2569 16.3716 40.0187 16.3716C25.0497 16.3716 12.9229 28.4984 12.9229 43.4675C12.9229 58.4365 25.0497 70.5633 40.0187 70.5633C47.2569 70.5633 53.813 67.7211 58.6637 63.0977V64.7652C58.6637 67.0769 60.5585 68.9717 62.8702 68.9717C65.1818 68.9717 67.0767 67.0769 67.0767 64.7652V4.09321C67.0767 1.78153 65.1818 -0.113281 62.8702 -0.113281Z" fill="url(#paint0_linear_38_27)"/>
<g opacity="0.12">
<path d="M58.6635 49.3794V50.7816C58.6635 54.3439 57.1476 58.5882 54.3054 63.2874C52.7896 65.7885 50.8948 68.4034 48.6589 71.0561C45.324 75.0352 41.9891 78.2943 40.0185 80.1133C38.0479 78.2943 34.713 75.0731 31.4161 71.1319C30.0897 69.5782 28.9149 68.0623 27.8538 66.5465C27.7401 66.3949 27.6264 66.2433 27.5506 66.1296C26.2243 64.2727 25.1253 62.4537 24.2158 60.7104C24.1779 60.6346 24.14 60.5588 24.1021 60.483C22.283 56.9208 21.3735 53.6996 21.3735 50.8574V49.4552C21.3735 43.9603 23.6473 38.9201 27.2854 35.3957C30.6581 32.1745 35.092 30.166 40.0185 30.166C44.945 30.166 49.4547 32.1366 52.7517 35.3957C53.0927 35.7368 53.4338 36.1157 53.7749 36.4947C53.9265 36.6084 54.0022 36.76 54.1159 36.8737C54.1917 36.9495 54.2675 37.0631 54.3433 37.1389C56.9961 40.4738 58.6256 44.7561 58.6635 49.3794Z" fill="black"/>
</g>
<path d="M58.6635 43.9224V45.3246C58.6635 48.8868 57.1476 53.1312 54.3054 57.8303C52.7896 60.3315 50.8948 62.9463 48.6589 65.5991C45.324 69.5782 41.9891 72.8373 40.0185 74.6563C38.0479 72.8373 34.713 69.6161 31.4161 65.6749C30.0897 64.1211 28.9149 62.6053 27.8538 61.0894C27.7401 60.9378 27.6264 60.7863 27.5506 60.6726C26.2243 58.8157 25.1253 56.9966 24.2158 55.2534C24.1779 55.1776 24.14 55.1018 24.1021 55.026C22.283 51.4638 21.3735 48.2426 21.3735 45.4004V43.9982C21.3735 38.5032 23.6473 33.463 27.2854 29.9387C30.6581 26.7175 35.092 24.709 40.0185 24.709C44.945 24.709 49.4547 26.6796 52.7517 29.9387C53.0927 30.2797 53.4338 30.6587 53.7749 31.0377C53.9265 31.1514 54.0022 31.3029 54.1159 31.4166C54.1917 31.4924 54.2675 31.6061 54.3433 31.6819C56.9961 35.0168 58.6256 39.2991 58.6635 43.9224Z" fill="white"/>
<path d="M39.981 32.7808C34.0692 32.7808 29.2942 37.5557 29.2942 43.4675C29.2942 45.3623 29.7869 47.1814 30.6585 48.7351L24.1782 55.2533C25.0498 56.9965 26.1867 58.7776 27.5131 60.6724L35.1303 53.0553C36.5703 53.8132 38.2377 54.2301 39.981 54.2301C45.8928 54.2301 50.6677 49.4551 50.6677 43.5433C50.6677 37.6315 45.8928 32.7808 39.981 32.7808Z" fill="#3E62F5"/>
<path d="M36.7974 36.0017C35.3952 36.608 34.2962 37.5933 33.5762 38.7681C33.2352 39.3366 33.5383 40.1324 34.1826 40.2461C34.2205 40.2461 34.2584 40.2461 34.2962 40.284C34.7131 40.3598 35.0921 40.1703 35.3194 39.7913C35.85 38.9576 36.6079 38.2755 37.5932 37.8586C38.6543 37.4039 39.7533 37.366 40.7765 37.6312C41.1555 37.7449 41.5723 37.6312 41.7997 37.2902C41.8376 37.2523 41.8376 37.2144 41.8755 37.1765C42.2545 36.6459 41.9892 35.8501 41.345 35.6985C39.9049 35.2817 38.2754 35.3575 36.7974 36.0017Z" fill="white"/>
</g>
<defs>
<linearGradient id="paint0_linear_38_27" x1="28.8183" y1="71.1835" x2="69.3765" y2="-1.55443" gradientUnits="userSpaceOnUse">
<stop stop-color="#2AE498"/>
<stop offset="0.0111746" stop-color="#2AE299"/>
<stop offset="0.4845" stop-color="#359DCA"/>
<stop offset="0.8263" stop-color="#3B72E9"/>
<stop offset="1" stop-color="#3E62F5"/>
</linearGradient>
<clipPath id="clip0_38_27">
<rect width="80" height="80" fill="white"/>
</clipPath>
</defs>
</svg>
