<svg width="20" height="20" viewBox="0 0 20 20" fill="none" xmlns="http://www.w3.org/2000/svg">
<rect width="20" height="20" rx="10" fill="white"/>
<path d="M13.3164 3.59961C12.9408 3.59961 12.6328 3.90751 12.6328 4.28316V7.49156C11.8446 6.74027 10.7792 6.27841 9.60303 6.27841C7.17056 6.27841 5.19995 8.24902 5.19995 10.6814C5.19995 13.1139 7.17056 15.0846 9.60303 15.0846C10.7792 15.0846 11.8446 14.6227 12.6328 13.8714V14.1423C12.6328 14.518 12.9408 14.8259 13.3164 14.8259C13.692 14.8259 14 14.518 14 14.1423V4.28316C14 3.90751 13.692 3.59961 13.3164 3.59961Z" fill="url(#paint0_linear_1632_4750)"/>
<g opacity="0.12">
<path d="M12.6323 11.6427V11.8705C12.6323 12.4494 12.386 13.1392 11.9242 13.9028C11.6779 14.3092 11.3699 14.7341 11.0067 15.1652C10.4647 15.8118 9.92279 16.3414 9.60256 16.6369C9.28234 16.3414 8.74043 15.818 8.20467 15.1775C7.98913 14.925 7.79823 14.6787 7.6258 14.4324C7.60732 14.4077 7.58885 14.3831 7.57653 14.3646C7.36099 14.0628 7.18241 13.7672 7.03462 13.484C7.02846 13.4716 7.0223 13.4593 7.01614 13.447C6.72055 12.8682 6.57275 12.3448 6.57275 11.8828V11.655C6.57275 10.762 6.94224 9.94304 7.53343 9.37033C8.0815 8.84689 8.802 8.52051 9.60256 8.52051C10.4031 8.52051 11.1359 8.84073 11.6717 9.37033C11.7271 9.42576 11.7826 9.48734 11.8379 9.54892C11.8626 9.5674 11.8749 9.59203 11.8934 9.6105C11.9057 9.62282 11.918 9.64129 11.9303 9.65361C12.3614 10.1956 12.6262 10.8914 12.6323 11.6427Z" fill="black"/>
</g>
<path d="M12.6321 10.755V10.9828C12.6321 11.5617 12.3858 12.2515 11.924 13.0151C11.6776 13.4215 11.3697 13.8464 11.0064 14.2775C10.4644 14.9241 9.92254 15.4537 9.60232 15.7493C9.28209 15.4537 8.74017 14.9303 8.20441 14.2898C7.98889 14.0373 7.79798 13.791 7.62555 13.5447C7.60708 13.52 7.58861 13.4954 7.57629 13.4769C7.36075 13.1751 7.18217 12.8795 7.03437 12.5963C7.02821 12.5839 7.02205 12.5717 7.01589 12.5594C6.7203 11.9805 6.57251 11.4571 6.57251 10.9951V10.7673C6.57251 9.87438 6.942 9.05535 7.53318 8.48264C8.08125 7.9592 8.80176 7.63281 9.60232 7.63281C10.4028 7.63281 11.1357 7.95304 11.6715 8.48264C11.7268 8.53806 11.7823 8.59964 11.8377 8.66123C11.8624 8.6797 11.8747 8.70433 11.8932 8.7228C11.9055 8.73512 11.9178 8.7536 11.9301 8.76592C12.3612 9.30784 12.626 10.0037 12.6321 10.755Z" fill="white"/>
<path d="M9.59675 8.94531C8.63608 8.94531 7.86015 9.72124 7.86015 10.6819C7.86015 10.9898 7.94021 11.2854 8.08185 11.5379L7.02881 12.5971C7.17044 12.8804 7.35518 13.1698 7.57072 13.4777L8.80851 12.2399C9.04252 12.3631 9.31348 12.4308 9.59675 12.4308C10.5574 12.4308 11.3334 11.6549 11.3334 10.6942C11.3334 9.73355 10.5574 8.94531 9.59675 8.94531Z" fill="#3E62F5"/>
<path d="M9.07966 9.46832C8.85181 9.56685 8.67322 9.72696 8.55622 9.91786C8.5008 10.0102 8.55006 10.1395 8.65475 10.158C8.6609 10.158 8.66706 10.158 8.67322 10.1642C8.74097 10.1765 8.80254 10.1457 8.8395 10.0842C8.92571 9.94866 9.04887 9.83781 9.20898 9.77006C9.38141 9.69617 9.56 9.69001 9.72627 9.73312C9.78785 9.75159 9.85559 9.73312 9.89254 9.6777C9.8987 9.67154 9.8987 9.66538 9.90486 9.65922C9.96644 9.57301 9.92333 9.44369 9.81864 9.41905C9.58463 9.35131 9.31983 9.36363 9.07966 9.46832Z" fill="white"/>
<defs>
<linearGradient id="paint0_linear_1632_4750" x1="7.78296" y1="15.1854" x2="14.3737" y2="3.36542" gradientUnits="userSpaceOnUse">
<stop stop-color="#2AE498"/>
<stop offset="0.0111746" stop-color="#2AE299"/>
<stop offset="0.4845" stop-color="#359DCA"/>
<stop offset="0.8263" stop-color="#3B72E9"/>
<stop offset="1" stop-color="#3E62F5"/>
</linearGradient>
</defs>
</svg>
