<svg xmlns="http://www.w3.org/2000/svg" xmlns:xlink="http://www.w3.org/1999/xlink" width="310" height="200" viewBox="0 0 310 200"><defs><linearGradient id="linear-gradient" x1="0.294" y1="0.123" x2="1.042" y2="1.152" gradientUnits="objectBoundingBox"><stop offset="0" stop-color="#2ae498"></stop><stop offset="0.011" stop-color="#2ae299"></stop><stop offset="0.485" stop-color="#349dca"></stop><stop offset="0.826" stop-color="#3b72e9"></stop><stop offset="1" stop-color="#3e62f5"></stop></linearGradient><clipPath id="clip-_27_Mailchimp"><rect width="310" height="200"></rect></clipPath></defs><g id="_27_Mailchimp" data-name="27_Mailchimp" clip-path="url(#clip-_27_Mailchimp)"><rect id="Rectangle_1621" data-name="Rectangle 1621" width="310" height="200" rx="10" fill="#fffbe1"></rect><path id="Path_16633" data-name="Path 16633" d="M1682.81,1158.85v94.464h94.464v-30.948a13.746,13.746,0,0,1-6.79,1.813c-8.572,0-15.522-8.1-15.522-18.094s6.95-18.1,15.522-18.1a13.671,13.671,0,0,1,6.79,1.821V1158.85h-33.951a13.571,13.571,0,0,0,1.326-5.84c0-8.572-8.1-15.522-18.1-15.522s-18.1,6.95-18.1,15.522a13.572,13.572,0,0,0,1.326,5.84Z" transform="translate(-1633.811 -1095.389)" fill="#1214b9"></path><path id="Path_16660" data-name="Path 16660" d="M873.607,1306.64c0,9.993,6.95,18.094,15.522,18.094a13.743,13.743,0,0,0,6.79-1.814v30.948h94.457V1259.4H955.282a13.722,13.722,0,0,1,2.277,7.541c-2.078,7.665-8.078,12.331-18.078,12.331s-15.666-4.333-18.121-12.331a13.724,13.724,0,0,1,2.276-7.541H895.919v30.955a13.668,13.668,0,0,0-6.79-1.822C880.557,1288.54,873.607,1296.64,873.607,1306.64Z" transform="translate(-730.147 -1195.943)" fill="#f1d000"></path><g id="Group_4" data-name="Group 4" transform="translate(65.752 83)"><path id="Path_1" data-name="Path 1" d="M39.54,5h0a3.262,3.262,0,0,0-3.251,3.251V23.509a20.94,20.94,0,1,0,0,30.341v1.289A3.262,3.262,0,0,0,39.54,58.39h0a3.262,3.262,0,0,0,3.251-3.251V8.251A3.262,3.262,0,0,0,39.54,5Z" transform="translate(-0.915 -5)" fill="url(#linear-gradient)"></path><g id="Group_3" data-name="Group 3" transform="translate(6.556 19.183)"><g id="Group_1" data-name="Group 1" transform="translate(0 4.217)" opacity="0.12"><path id="Path_2" data-name="Path 2" d="M52.118,99.748v1.084c0,2.753-1.171,6.033-3.368,9.665a48.15,48.15,0,0,1-4.364,6,78.377,78.377,0,0,1-6.677,7,76.482,76.482,0,0,1-6.648-6.941c-1.025-1.2-1.933-2.372-2.753-3.544-.088-.117-.176-.234-.234-.322A35.3,35.3,0,0,1,25.5,108.5l-.088-.176a16.693,16.693,0,0,1-2.109-7.439v-1.08a15.145,15.145,0,0,1,4.569-10.865,14.189,14.189,0,0,1,9.84-4.042,13.957,13.957,0,0,1,9.84,4.042c.264.264.527.556.791.849a2.378,2.378,0,0,1,.264.293c.059.059.117.146.176.2a15.409,15.409,0,0,1,3.338,9.464Z" transform="translate(-23.3 -84.9)"></path></g><g id="Group_2" data-name="Group 2"><path id="Path_3" data-name="Path 3" d="M52.118,85.348v1.084c0,2.753-1.171,6.033-3.368,9.665a48.15,48.15,0,0,1-4.364,6,78.381,78.381,0,0,1-6.677,7,76.483,76.483,0,0,1-6.648-6.941c-1.025-1.2-1.933-2.372-2.753-3.544-.088-.117-.176-.234-.234-.322A35.3,35.3,0,0,1,25.5,94.105l-.088-.176A16.693,16.693,0,0,1,23.3,86.49V85.407a15.145,15.145,0,0,1,4.569-10.865,14.189,14.189,0,0,1,9.84-4.042,13.957,13.957,0,0,1,9.84,4.042c.264.264.527.556.791.849a2.377,2.377,0,0,1,.264.293c.059.059.117.146.176.205a15.409,15.409,0,0,1,3.338,9.459Z" transform="translate(-23.3 -70.5)" fill="#fff"></path></g></g><path id="Path_4" data-name="Path 4" d="M42.913,91.8a8.249,8.249,0,0,0-8.259,8.259,8.34,8.34,0,0,0,1.054,4.071L30.7,109.167a33.863,33.863,0,0,0,2.577,4.188l5.887-5.887a8.056,8.056,0,0,0,3.749.908,8.288,8.288,0,1,0,0-16.576Z" transform="translate(-21.977 -66.379)" fill="#3e62f5"></path><path id="Path_5" data-name="Path 5" d="M57.715,99.252a5.427,5.427,0,0,0-2.489,2.138.763.763,0,0,0,.469,1.142.107.107,0,0,1,.088.029.746.746,0,0,0,.791-.381,3.836,3.836,0,0,1,1.757-1.494,3.769,3.769,0,0,1,2.46-.176.7.7,0,0,0,.791-.264c.029-.029.029-.059.059-.088a.74.74,0,0,0-.41-1.142,5.218,5.218,0,0,0-3.516.236Z" transform="translate(-39.239 -71.341)" fill="#fff"></path></g><g id="Group_4754" data-name="Group 4754" transform="translate(-481.868 -7.5)"><path id="Path_4748" data-name="Path 4748" d="M721.406,138.8a2.805,2.805,0,0,0-1.02-1.921,2.588,2.588,0,0,1-1.424-2.059,3.845,3.845,0,0,1,.106-1.878,4.225,4.225,0,0,0-1.729-5.34,13.917,13.917,0,0,0-3.385-1.422,1.218,1.218,0,0,1-1.066-1.4,16.706,16.706,0,0,0-.221-4.07c-.5-1.931-1.34-3.774-2.116-5.868a14.719,14.719,0,0,0,3.79-6.764,4.846,4.846,0,0,0-4.115-6.059c-3.326-.674-6.431.187-9.423,1.468a2.108,2.108,0,0,1-2.909-.6,7.6,7.6,0,0,0-4.071-2.89h-2.044c-7.7,2.049-12.9,7.458-17.7,13.338-2.832,3.473-5.236,7.242-6.182,11.725-.553,2.622-.2,5.019,2.25,6.657a1.794,1.794,0,0,1,.749,2.234,8.69,8.69,0,0,0,7.109,10.558,2.441,2.441,0,0,1,1.957,1.459c3.563,6.725,9.345,10.211,16.737,11.289a9.414,9.414,0,0,1,.955.24h4.855a51.863,51.863,0,0,0,6.391-1.577c6.565-2.5,10.9-7.085,12.379-14.086A8.959,8.959,0,0,0,721.406,138.8Zm-37.828-.553c-.321,3.412-3.067,5.145-6.277,3.971a6.771,6.771,0,0,1-4.147-8.778,5.542,5.542,0,0,1,5.128-3.543,5.031,5.031,0,0,1,4.72,3.464,28.156,28.156,0,0,1,.788,3.575l-.206.035C683.584,137.4,683.618,137.828,683.579,138.249ZM677.272,126.8a2.572,2.572,0,0,1-1.514,1.481,36.532,36.532,0,0,0-3.89,2.41c-2.208-1.7-2.678-2.928-1.87-5.793,1.368-4.855,4.163-8.9,7.437-12.63a36.725,36.725,0,0,1,10.714-8.734c.49-.251.989-.492,1.5-.7,3.632-1.447,5.111-.987,7.343,2.2-2.772,2.018-5.6,3.963-8.3,6.064A37.085,37.085,0,0,0,677.272,126.8Zm17.8-16.463-.474,1.489,6.021-2.106.194.347-.7.959,5.033,1.351q-.018.212-.037.424a22.116,22.116,0,0,0-17,3.453C688.8,114.675,692.351,111.666,695.068,110.339Zm24.461,30.086a15.864,15.864,0,0,1-1.7,4.485c-3.57,5.75-11.745,8.452-18.085,6.122-6.95-2.555-9.219-10.569-4.6-16.519a1.557,1.557,0,0,0-.1-2.461c-1.885-1.924-3.116-4.105-2.781-6.96a5.8,5.8,0,0,1,6.252-5.216c.975.081,1.949.182,2.926.235a5.862,5.862,0,0,0,4.363-1.444c.9-.8,1.9-1.4,3.121-.886a3.163,3.163,0,0,1,1.735,2.921c.162,1.607.26,3.225.3,4.839a2.188,2.188,0,0,0,1.924,2.406,11.966,11.966,0,0,1,3.185,1.229c1.58.887,1.886,2.382.658,3.722a11.82,11.82,0,0,1-3.3,2.536,21.509,21.509,0,0,1-12.624,2.193c-2-.253-3.075.238-3.671,1.719a3.607,3.607,0,0,0,1.354,4.393,9.45,9.45,0,0,0,5.836,1.482,18.627,18.627,0,0,0,10.33-3.165c.616-.43,1.154-.971,1.7-1.439-2.776.994-5.432,2.095-8.177,2.884a12.944,12.944,0,0,1-7.552-.112c-1.044-.33-2.064-.8-2.287-2.226,3.049.769,6.02,1.2,8.782.086-2.289-.238-4.714-.47-7.133-.756a8.159,8.159,0,0,1-1.523-.487l-.1-.428c.564-.224,1.158-.7,1.687-.634,6.178.755,11.938-.245,17.17-3.96.222.646.457,1.188.592,1.755a2.044,2.044,0,0,0,1.132,1.59A2.358,2.358,0,0,1,719.529,140.426Z"></path><path id="Path_4749" data-name="Path 4749" d="M825.268,193.614a27.568,27.568,0,0,0-.6-3.178c-.1-.352-.713-.553-1.091-.823-.206.372-.572.738-.584,1.116a7.838,7.838,0,0,0,.288,2C823.484,193.581,823.951,194.1,825.268,193.614Z" transform="translate(-115.628 -66.712)"></path><path id="Path_4750" data-name="Path 4750" d="M785.567,206.24a3.6,3.6,0,0,0-6.428-.105A7.089,7.089,0,0,1,785.567,206.24Z" transform="translate(-82.98 -77.573)"></path><path id="Path_4751" data-name="Path 4751" d="M788.625,214.226l3.535-.328A2.066,2.066,0,0,0,788.625,214.226Z" transform="translate(-90.042 -84.159)"></path><path id="Path_4752" data-name="Path 4752" d="M827.84,211.777c-.224.345-.586.673-.629,1.039-.033.287.33.619.728,1.284.317-.74.622-1.125.591-1.481C828.5,212.32,828.085,212.056,827.84,211.777Z" transform="translate(-118.765 -83.212)"></path><path id="Path_4753" data-name="Path 4753" d="M817.232,217.908a6.631,6.631,0,0,0-1.534-.779c-.189-.035-.465.405-.7.63a4.87,4.87,0,0,0,1.106.827C816.281,218.655,816.632,218.284,817.232,217.908Z" transform="translate(-109.674 -87.194)"></path><path id="Path_4754" data-name="Path 4754" d="M702.351,230.18a6.091,6.091,0,0,0,.385-1.206,2.656,2.656,0,0,0-1.414-2.886,2.424,2.424,0,0,0-3.055.352,3.017,3.017,0,0,0-.844,3.49c.321-.581.509-.87.647-1.18.423-.943,1.034-1.587,2.162-1.252,1,.3,1.28,1.121.975,2.382a3.519,3.519,0,0,0-.157,1.851,2.722,2.722,0,0,0,1.326,1.326c.287.139.848-.29,1.286-.462C701.817,232,701.725,231.829,702.351,230.18Z" transform="translate(-21.979 -93.579)"></path></g></g></svg>