<svg xmlns="http://www.w3.org/2000/svg" xmlns:xlink="http://www.w3.org/1999/xlink" width="310" height="200" viewBox="0 0 310 200"><defs><linearGradient id="linear-gradient" x1="0.5" x2="0.5" y2="1" gradientUnits="objectBoundingBox"><stop offset="0" stop-color="#f0e0ce"></stop><stop offset="1" stop-color="#fed1cc"></stop></linearGradient><linearGradient id="linear-gradient-2" x1="0.294" y1="0.123" x2="1.042" y2="1.152" gradientUnits="objectBoundingBox"><stop offset="0" stop-color="#2ae498"></stop><stop offset="0.011" stop-color="#2ae299"></stop><stop offset="0.485" stop-color="#349dca"></stop><stop offset="0.826" stop-color="#3b72e9"></stop><stop offset="1" stop-color="#3e62f5"></stop></linearGradient><clipPath id="clip-BuddyPress"><rect width="310" height="200"></rect></clipPath></defs><g id="BuddyPress" clip-path="url(#clip-BuddyPress)"><rect width="310" height="200" fill="#fff"></rect><g id="Group_11245" data-name="Group 11245" transform="translate(1502 -1511)"><rect id="Rectangle_2021" data-name="Rectangle 2021" width="310" height="200" rx="10" transform="translate(-1502 1511)" fill="url(#linear-gradient)"></rect></g><g id="Group_11300" data-name="Group 11300" opacity="0.5"><g id="Group_11285" data-name="Group 11285" transform="matrix(0.602, 0.799, -0.799, 0.602, 134.464, 18.611)"><path id="Path_16666" data-name="Path 16666" d="M5.274,3.131C3.591,1.2,3.034-.432,1.03.1-.275.452-.393,1.922.98,2.6a10.5,10.5,0,0,0,4.083,1.1C5.2,3.676,5.638,3.549,5.274,3.131Z" transform="translate(0 0)" fill="#002bff"></path></g><g id="Group_11286" data-name="Group 11286" transform="translate(230.455 26.256) rotate(-45)"><path id="Path_16667" data-name="Path 16667" d="M.589,4.967c3.759-.3,6.175.459,7.29-2.381C8.606.736,6.968-.687,4.972.35,3.626,1.05.811,2.959.107,4.226.011,4.4-.225,5.034.589,4.967Z" transform="translate(0 0)" fill="#0e0"></path></g><g id="Group_11288" data-name="Group 11288" transform="translate(68.084 30.524)"><path id="Path_16669" data-name="Path 16669" d="M475.563,257.135c-.052-3.005.677-4.887-1.525-5.918-1.435-.671-2.649.56-1.925,2.2.489,1.106,1.865,3.441,2.837,4.065C475.081,257.565,475.575,257.785,475.563,257.135Z" transform="translate(-471.897 -251.03)" fill="#00bb7b"></path></g><g id="Group_11289" data-name="Group 11289" transform="translate(273.734 100)"><path id="Path_16670" data-name="Path 16670" d="M2.809.265C.971,2.891-.838,4.059.417,6.329c.818,1.479,2.637,1.177,3.039-.691C3.727,4.378,4,1.5,3.555.351,3.495.2,3.207-.3,2.809.265Z" transform="matrix(0.259, -0.966, 0.966, 0.259, 0, 3.663)" fill="#1313ff"></path></g><g id="Group_11290" data-name="Group 11290" transform="translate(275.669 63.96) rotate(-51)"><path id="Path_16671" data-name="Path 16671" d="M.118.528c1.5,1.94,1.934,3.525,3.875,3.129C5.259,3.4,5.454,2,4.184,1.282A10.033,10.033,0,0,0,.352,0C.225.013-.206.108.118.528Z" transform="translate(0 0)" fill="#8000ff"></path></g><g id="Group_11298" data-name="Group 11298" transform="translate(38.42 111.85) rotate(-177)"><path id="Path_16671-2" data-name="Path 16671" d="M.188,5.058C2.56,1.983,3.255-.532,6.333.1c2.006.41,2.316,2.623.3,3.765C5.274,4.632,2.047,5.993.557,5.89.356,5.876-.326,5.724.188,5.058Z" transform="translate(0)" fill="#b50de6"></path></g><g id="Group_11291" data-name="Group 11291" transform="translate(26.331 63.599)"><path id="Path_16672" data-name="Path 16672" d="M456.254,282.38c-2.508-2.817-3.353-5.2-6.292-4.384-1.915.535-2.064,2.7-.034,3.667,1.369.652,4.588,1.748,6.024,1.547C456.147,283.184,456.8,282.99,456.254,282.38Z" transform="translate(-448.466 -277.833)" fill="red"></path></g><g id="Group_11297" data-name="Group 11297" transform="translate(96.93 46.209)"><path id="Path_16677" data-name="Path 16677" d="M328.322,303.368a2.5,2.5,0,1,1-2.5-2.5A2.5,2.5,0,0,1,328.322,303.368Z" transform="translate(-323.322 -300.867)" fill="#ff1200"></path></g><g id="Group_11296" data-name="Group 11296" transform="translate(161.558 38.233)"><path id="Path_16676" data-name="Path 16676" d="M377.821,314.612a1.442,1.442,0,1,1-1.442-1.442A1.442,1.442,0,0,1,377.821,314.612Z" transform="translate(-354.936 -333.17)" fill="#8447ff"></path></g><g id="Group_11295" data-name="Group 11295" transform="translate(253.939 46.709)"><path id="Path_16675" data-name="Path 16675" d="M336.71,335.858a2,2,0,1,1-2-2A2,2,0,0,1,336.71,335.858Z" transform="translate(-332.71 -333.857)" fill="#ff1a1a"></path></g><g id="Group_11299" data-name="Group 11299" transform="translate(38.729 41.499)"><path id="Path_16675-2" data-name="Path 16675" d="M336.71,335.858a2,2,0,1,1-2-2A2,2,0,0,1,336.71,335.858Z" transform="translate(-332.71 -333.857)" fill="#fbbf14"></path></g></g><g id="Group_11302" data-name="Group 11302" transform="translate(2405.342 -328.842)"><g id="Group_11262" data-name="Group 11262" transform="translate(-2256.656 361.842)"><g id="Group_11256" data-name="Group 11256" transform="translate(0)"><path id="Path_16593" data-name="Path 16593" d="M680.089,509.025a12.275,12.275,0,0,0,4.495-4.434l13.7,24.117,73.76-41.892-41.9-73.767-27.4,15.564a12.321,12.321,0,0,0-1.566-6.9c-3.8-6.694-13.21-8.528-21.02-4.093S669.1,431.079,672.9,437.772a12.325,12.325,0,0,0,5.122,4.879l-21.64,12.291,13.757,24.223a12.276,12.276,0,0,0-6.11,1.589c-6.694,3.8-8.528,13.209-4.092,21.02S673.4,512.827,680.089,509.025Z" transform="translate(-656.385 -413.05)" fill="#d14600"></path></g></g><path id="Path_16656" data-name="Path 16656" d="M1495.832,294.311V201.459h26.5a13.338,13.338,0,0,0-1.3,5.74c0,8.426,7.97,15.257,17.793,15.257s17.793-6.831,17.793-15.257a13.341,13.341,0,0,0-1.3-5.74h33.371v30.49a13.433,13.433,0,0,0-6.674-1.79c-8.426,0-15.257,7.962-15.257,17.793s6.831,17.793,15.257,17.793a13.432,13.432,0,0,0,6.674-1.79v30.357Z" transform="translate(-3856.174 200.963)" fill="#1214b9"></path><g id="Group_4" data-name="Group 4" transform="translate(-2341.877 431)"><path id="Path_1" data-name="Path 1" d="M36.431,5h0a3,3,0,0,0-2.989,2.989v14.03a19.255,19.255,0,1,0,0,27.9V51.1a3,3,0,0,0,2.989,2.989h0A3,3,0,0,0,39.42,51.1V7.989A3,3,0,0,0,36.431,5Z" transform="translate(-0.915 -5)" fill="url(#linear-gradient-2)"></path><g id="Group_3" data-name="Group 3" transform="translate(6.028 17.639)"><g id="Group_1" data-name="Group 1" transform="translate(0 3.878)" opacity="0.12"><path id="Path_2" data-name="Path 2" d="M49.8,98.553v1c0,2.531-1.077,5.547-3.1,8.887a44.275,44.275,0,0,1-4.013,5.521,72.068,72.068,0,0,1-6.14,6.436,70.326,70.326,0,0,1-6.113-6.382c-.943-1.1-1.777-2.181-2.531-3.258-.081-.108-.162-.215-.215-.3a32.458,32.458,0,0,1-2.37-3.851l-.081-.162A15.35,15.35,0,0,1,23.3,99.6v-1a13.926,13.926,0,0,1,4.2-9.991A13.047,13.047,0,0,1,36.549,84.9,12.833,12.833,0,0,1,45.6,88.616c.242.242.485.512.727.781a2.186,2.186,0,0,1,.242.269c.054.054.108.135.162.188A14.169,14.169,0,0,1,49.8,98.553Z" transform="translate(-23.3 -84.9)"></path></g><g id="Group_2" data-name="Group 2"><path id="Path_3" data-name="Path 3" d="M49.8,84.153v1c0,2.531-1.077,5.547-3.1,8.887a44.275,44.275,0,0,1-4.013,5.521,72.072,72.072,0,0,1-6.14,6.436,70.329,70.329,0,0,1-6.113-6.382c-.943-1.1-1.777-2.181-2.531-3.258-.081-.108-.162-.215-.215-.3a32.458,32.458,0,0,1-2.37-3.851l-.081-.162A15.349,15.349,0,0,1,23.3,85.2v-1a13.926,13.926,0,0,1,4.2-9.991A13.047,13.047,0,0,1,36.549,70.5,12.833,12.833,0,0,1,45.6,74.216c.242.242.485.512.727.781a2.188,2.188,0,0,1,.242.269c.054.054.108.135.162.189A14.169,14.169,0,0,1,49.8,84.153Z" transform="translate(-23.3 -70.5)" fill="#fff"></path></g></g><path id="Path_4" data-name="Path 4" d="M41.93,91.8a7.585,7.585,0,0,0-7.594,7.594,7.669,7.669,0,0,0,.969,3.743l-4.6,4.632a31.137,31.137,0,0,0,2.37,3.851l5.413-5.413a7.408,7.408,0,0,0,3.447.835,7.621,7.621,0,1,0,0-15.242Z" transform="translate(-22.679 -68.425)" fill="#3e62f5"></path><path id="Path_5" data-name="Path 5" d="M57.505,99.217a4.99,4.99,0,0,0-2.289,1.966.7.7,0,0,0,.431,1.05.1.1,0,0,1,.081.027.686.686,0,0,0,.727-.35,3.528,3.528,0,0,1,1.616-1.373,3.466,3.466,0,0,1,2.262-.162.639.639,0,0,0,.727-.242c.027-.027.027-.054.054-.081A.681.681,0,0,0,60.737,99,4.8,4.8,0,0,0,57.505,99.217Z" transform="translate(-40.517 -73.553)" fill="#fff"></path></g><g id="Group_11301" data-name="Group 11301" transform="translate(-2225.545 393.905)"><path id="Path_16678" data-name="Path 16678" d="M307.255,370.283a26.335,26.335,0,1,0,25.822,26.333A26.325,26.325,0,0,0,307.255,370.283Zm-.534,51.519a25.2,25.2,0,1,1,25.247-24.985A25.188,25.188,0,0,1,306.721,421.8Z" transform="translate(-280.424 -370.279)" fill="#fff"></path><path id="Path_16679" data-name="Path 16679" d="M306.7,373.847a22.577,22.577,0,1,0,22.434,22.6A22.532,22.532,0,0,0,306.7,373.847Zm8.412,5.6a7.825,7.825,0,0,1,3.72,8.711c-.672,2.743-3.51,5.489-5.812,5.559a9.421,9.421,0,0,0-5.767-14.028A7.592,7.592,0,0,1,315.116,379.448ZM305.077,381.1a7.757,7.757,0,1,1-7.806,7.772A7.747,7.747,0,0,1,305.077,381.1Zm14.685,28.068c-.025.371-.15.51-.551.51q-14.148-.017-28.3-.006c-.3,0-.525-.014-.563-.4a15.352,15.352,0,0,1,.869-7.31,8.515,8.515,0,0,1,7.008-5.421,2.269,2.269,0,0,1,2.255.791c1.481,1.55,3.036,3.028,4.612,4.586l3.512-3.446c.605-.595,1.2-1.2,1.822-1.778a.867.867,0,0,1,.579-.218,9.025,9.025,0,0,1,8.159,6.386A16.9,16.9,0,0,1,319.762,409.171Zm4.621-3.633q-1.344-.008-2.691,0c-.278,0-.383-.107-.415-.39a14.071,14.071,0,0,0-1.162-4.383,8.327,8.327,0,0,0-5.062-4.747,1.329,1.329,0,0,1-.212-.136c.435-.5.815-.976,1.243-1.4a.942.942,0,0,1,.606-.205,6.955,6.955,0,0,1,6.585,3.854,13.471,13.471,0,0,1,1.435,5.48c.04.494.052.991.085,1.486C324.816,405.4,324.693,405.539,324.383,405.538Z" transform="translate(-280.235 -370.09)" fill="#fff"></path></g></g></g></svg>