<svg xmlns="http://www.w3.org/2000/svg" xmlns:xlink="http://www.w3.org/1999/xlink" width="310" height="200" viewBox="0 0 310 200"><defs><linearGradient id="linear-gradient" x1="0.294" y1="0.123" x2="1.042" y2="1.152" gradientUnits="objectBoundingBox"><stop offset="0" stop-color="#2ae498"></stop><stop offset="0.011" stop-color="#2ae299"></stop><stop offset="0.485" stop-color="#349dca"></stop><stop offset="0.826" stop-color="#3b72e9"></stop><stop offset="1" stop-color="#3e62f5"></stop></linearGradient><clipPath id="clip-_31_Directorist_-_HelpGent_Integration"><rect width="310" height="200"></rect></clipPath></defs><g id="_31_Directorist_-_HelpGent_Integration" data-name="31_Directorist - HelpGent Integration" clip-path="url(#clip-_31_Directorist_-_HelpGent_Integration)"><rect id="Rectangle_1621" data-name="Rectangle 1621" width="310" height="200" rx="10" fill="#f9c9c9"></rect><path id="Path_16633" data-name="Path 16633" d="M1682.81,1158.85v94.464h94.464v-30.948a13.746,13.746,0,0,1-6.79,1.813c-8.572,0-15.522-8.1-15.522-18.094s6.95-18.1,15.522-18.1a13.671,13.671,0,0,1,6.79,1.821V1158.85h-33.951a13.571,13.571,0,0,0,1.326-5.84c0-8.572-8.1-15.522-18.1-15.522s-18.1,6.95-18.1,15.522a13.572,13.572,0,0,0,1.326,5.84Z" transform="translate(-1633.811 -1095.389)" fill="#1214b9"></path><path id="Path_16660" data-name="Path 16660" d="M873.607,1306.64c0,9.993,6.95,18.094,15.522,18.094a13.743,13.743,0,0,0,6.79-1.814v30.948h94.457V1259.4H955.282a13.722,13.722,0,0,1,2.277,7.541c-2.078,7.665-8.078,12.331-18.078,12.331s-15.666-4.333-18.121-12.331a13.724,13.724,0,0,1,2.276-7.541H895.919v30.955a13.668,13.668,0,0,0-6.79-1.822C880.557,1288.54,873.607,1296.64,873.607,1306.64Z" transform="translate(-730.147 -1196.404)" fill="#fff"></path><g id="Group_4" data-name="Group 4" transform="translate(65.752 83)"><path id="Path_1" data-name="Path 1" d="M39.54,5h0a3.262,3.262,0,0,0-3.251,3.251V23.509a20.94,20.94,0,1,0,0,30.341v1.289A3.262,3.262,0,0,0,39.54,58.39h0a3.262,3.262,0,0,0,3.251-3.251V8.251A3.262,3.262,0,0,0,39.54,5Z" transform="translate(-0.915 -5)" fill="url(#linear-gradient)"></path><g id="Group_3" data-name="Group 3" transform="translate(6.556 19.183)"><g id="Group_1" data-name="Group 1" transform="translate(0 4.217)" opacity="0.12"><path id="Path_2" data-name="Path 2" d="M52.118,99.748v1.084c0,2.753-1.171,6.033-3.368,9.665a48.15,48.15,0,0,1-4.364,6,78.377,78.377,0,0,1-6.677,7,76.482,76.482,0,0,1-6.648-6.941c-1.025-1.2-1.933-2.372-2.753-3.544-.088-.117-.176-.234-.234-.322A35.3,35.3,0,0,1,25.5,108.5l-.088-.176a16.693,16.693,0,0,1-2.109-7.439v-1.08a15.145,15.145,0,0,1,4.569-10.865,14.189,14.189,0,0,1,9.84-4.042,13.957,13.957,0,0,1,9.84,4.042c.264.264.527.556.791.849a2.378,2.378,0,0,1,.264.293c.059.059.117.146.176.2a15.409,15.409,0,0,1,3.338,9.464Z" transform="translate(-23.3 -84.9)"></path></g><g id="Group_2" data-name="Group 2"><path id="Path_3" data-name="Path 3" d="M52.118,85.348v1.084c0,2.753-1.171,6.033-3.368,9.665a48.15,48.15,0,0,1-4.364,6,78.381,78.381,0,0,1-6.677,7,76.483,76.483,0,0,1-6.648-6.941c-1.025-1.2-1.933-2.372-2.753-3.544-.088-.117-.176-.234-.234-.322A35.3,35.3,0,0,1,25.5,94.105l-.088-.176A16.693,16.693,0,0,1,23.3,86.49V85.407a15.145,15.145,0,0,1,4.569-10.865,14.189,14.189,0,0,1,9.84-4.042,13.957,13.957,0,0,1,9.84,4.042c.264.264.527.556.791.849a2.377,2.377,0,0,1,.264.293c.059.059.117.146.176.205a15.409,15.409,0,0,1,3.338,9.459Z" transform="translate(-23.3 -70.5)" fill="#fff"></path></g></g><path id="Path_4" data-name="Path 4" d="M42.913,91.8a8.249,8.249,0,0,0-8.259,8.259,8.34,8.34,0,0,0,1.054,4.071L30.7,109.167a33.863,33.863,0,0,0,2.577,4.188l5.887-5.887a8.056,8.056,0,0,0,3.749.908,8.288,8.288,0,1,0,0-16.576Z" transform="translate(-21.977 -66.379)" fill="#3e62f5"></path><path id="Path_5" data-name="Path 5" d="M57.715,99.252a5.427,5.427,0,0,0-2.489,2.138.763.763,0,0,0,.469,1.142.107.107,0,0,1,.088.029.746.746,0,0,0,.791-.381,3.836,3.836,0,0,1,1.757-1.494,3.769,3.769,0,0,1,2.46-.176.7.7,0,0,0,.791-.264c.029-.029.029-.059.059-.088a.74.74,0,0,0-.41-1.142,5.218,5.218,0,0,0-3.516.236Z" transform="translate(-39.239 -71.341)" fill="#fff"></path></g><g id="HelpGent_Icon" data-name="HelpGent Icon" transform="translate(186.408 72.848)"><path id="Path_25647" data-name="Path 25647" d="M55.554,32.755a3.7,3.7,0,0,0-4.04.657l-4.452,4.14V33.567c0-.211,0-.423-.011-.634A14.052,14.052,0,0,0,33,19.5H15.056A14.035,14.035,0,0,0,1,33.556V51.474A14.073,14.073,0,0,0,11.684,65.14V69.5a2.7,2.7,0,0,0,.278,1.18,2.663,2.663,0,0,0,3.561,1.191L28.01,65.607l3.884-.067h1.091q.484,0,.968-.033a12.83,12.83,0,0,0,1.725-.223A14.069,14.069,0,0,0,47.052,52.108c.011-.211.011-.423.011-.634V49.159l4.463,4.14a3.754,3.754,0,0,0,2.537.979,3.645,3.645,0,0,0,1.5-.323,3.5,3.5,0,0,0,2.181-3.239V35.982A3.468,3.468,0,0,0,55.554,32.755ZM25.35,58.507l-5.91,2.96a1.053,1.053,0,0,1-.445.111,1.007,1.007,0,0,1-1.013-1V57.35a15.685,15.685,0,0,1-9.6-14.457h0A15.683,15.683,0,0,1,24.059,27.212h0A15.674,15.674,0,0,1,25.35,58.507Z" transform="translate(0 0)"></path><g id="Group_4787" data-name="Group 4787" transform="translate(14.044 40.632)"><circle id="Ellipse_397" data-name="Ellipse 397" cx="2.248" cy="2.248" r="2.248" transform="translate(14.856 0.458)"></circle><circle id="Ellipse_398" data-name="Ellipse 398" cx="2.248" cy="2.248" r="2.248" transform="translate(7.655 0.458)"></circle><circle id="Ellipse_399" data-name="Ellipse 399" cx="2.248" cy="2.248" r="2.248" transform="translate(0 1.033) rotate(-13.286)"></circle></g></g></g></svg>