<svg xmlns="http://www.w3.org/2000/svg" xmlns:xlink="http://www.w3.org/1999/xlink" width="310" height="200" viewBox="0 0 310 200"><defs><linearGradient id="linear-gradient" x1="1" x2="0" y2="1" gradientUnits="objectBoundingBox"><stop offset="0" stop-color="#79ffd5"></stop><stop offset="1" stop-color="#a7ff7a"></stop></linearGradient><filter id="Rectangle_11" x="55" y="5" width="200" height="210" filterUnits="userSpaceOnUse"><feOffset dy="10" input="SourceAlpha"></feOffset><feGaussianBlur stdDeviation="15" result="blur"></feGaussianBlur><feFlood flood-color="#6dac79" flood-opacity="0.2"></feFlood><feComposite operator="in" in2="blur"></feComposite><feComposite in="SourceGraphic"></feComposite></filter><clipPath id="clip-_30_Jobs_Manager"><rect width="310" height="200"></rect></clipPath></defs><g id="_30_Jobs_Manager" data-name="30_Jobs Manager" clip-path="url(#clip-_30_Jobs_Manager)"><rect id="Rectangle_34" data-name="Rectangle 34" width="310" height="200" rx="10" opacity="0.25" fill="url(#linear-gradient)"></rect><g id="Group_4786" data-name="Group 4786" transform="translate(-2 -2)"><g id="Group_4784" data-name="Group 4784" transform="translate(-5 2)"><g transform="matrix(1, 0, 0, 1, 7, 0)" filter="url(#Rectangle_11)"><rect id="Rectangle_11-2" data-name="Rectangle 11" width="110" height="120" rx="6" transform="translate(100 40)" fill="#fff"></rect></g></g><g id="Group_4785" data-name="Group 4785" transform="translate(-5 12)"><g id="Group_4704" data-name="Group 4704" transform="translate(122 54)"><rect id="Rectangle_1459" data-name="Rectangle 1459" width="80" height="50" rx="4" transform="translate(0)" fill="#1ec659" opacity="0.15"></rect><g id="Group_4075" data-name="Group 4075" transform="translate(2.57 55.527)" opacity="0.15"><rect id="Rectangle_1461" data-name="Rectangle 1461" width="47.564" height="5.048" rx="2.524" transform="translate(13.43 12.096)" fill="#1ec659"></rect><rect id="Rectangle_1465" data-name="Rectangle 1465" width="74.709" height="5.048" rx="2.524" transform="translate(0.43 1)" fill="#1ec659"></rect></g></g><g id="briefcase_minimalis" data-name="briefcase minimalis" transform="translate(144.994 62.048)"><path id="Path_25645" data-name="Path 25645" d="M29.858,7.075H25.3V5.556A4.556,4.556,0,0,0,20.745,1H14.669a4.556,4.556,0,0,0-4.556,4.557V7.075H5.556A4.556,4.556,0,0,0,1,11.632V29.858a4.556,4.556,0,0,0,4.556,4.556h24.3a4.556,4.556,0,0,0,4.556-4.556V11.632A4.556,4.556,0,0,0,29.858,7.075ZM13.151,5.556a1.519,1.519,0,0,1,1.519-1.519h6.075a1.519,1.519,0,0,1,1.519,1.519V7.075H13.151ZM4.038,11.632a1.519,1.519,0,0,1,1.519-1.519h24.3a1.519,1.519,0,0,1,1.519,1.519v3.038a4.556,4.556,0,0,1-4.556,4.557H8.594a4.556,4.556,0,0,1-4.556-4.557Zm25.82,19.745H5.556a1.519,1.519,0,0,1-1.519-1.519V20.745a7.473,7.473,0,0,0,4.557,1.519c19.745,0,20.064.5,22.782-1.519v9.113A1.519,1.519,0,0,1,29.858,31.377Z" transform="translate(-1 -1)" fill="#44cf75"></path><path id="Path_25646" data-name="Path 25646" d="M11.519,13.038h3.038a1.519,1.519,0,1,0,0-3.038H11.519a1.519,1.519,0,1,0,0,3.038Z" transform="translate(3.669 3.669)" fill="#44cf75"></path></g></g></g></g></svg>