<svg xmlns="http://www.w3.org/2000/svg" xmlns:xlink="http://www.w3.org/1999/xlink" width="310" height="200" viewBox="0 0 310 200"><defs><linearGradient id="linear-gradient" x1="495.369" y1="-117.275" x2="495.602" y2="-116.639" gradientUnits="objectBoundingBox"><stop offset="0" stop-color="#f099dd"></stop><stop offset="1" stop-color="#d34ac0"></stop></linearGradient><linearGradient id="linear-gradient-2" x1="418.372" y1="-200.418" x2="418.137" y2="-198.667" xlink:href="#linear-gradient"></linearGradient><linearGradient id="linear-gradient-3" x1="0.5" y1="0.46" x2="0.501" y2="0.107" gradientUnits="objectBoundingBox"><stop offset="0" stop-color="#fff"></stop><stop offset="1" stop-color="#aac8f9"></stop></linearGradient><filter id="Path_4761" x="67.8" y="28.349" width="173.4" height="136.067" filterUnits="userSpaceOnUse"><feOffset dy="5" input="SourceAlpha"></feOffset><feGaussianBlur stdDeviation="5" result="blur"></feGaussianBlur><feFlood flood-color="#b5b5b5" flood-opacity="0.161"></feFlood><feComposite operator="in" in2="blur"></feComposite><feComposite in="SourceGraphic"></feComposite></filter><linearGradient id="linear-gradient-4" x1="0.491" y1="0.001" x2="0.491" y2="1.006" gradientUnits="objectBoundingBox"><stop offset="0" stop-color="#99a9fa"></stop><stop offset="1" stop-color="#797efc"></stop></linearGradient><linearGradient id="linear-gradient-5" x1="0.491" y1="-0.001" x2="0.491" y2="0.887" gradientUnits="objectBoundingBox"><stop offset="0" stop-color="#f1f5fd"></stop><stop offset="1" stop-color="#aac8f9"></stop></linearGradient><linearGradient id="linear-gradient-7" x1="0.509" y1="0.001" x2="0.509" y2="1.006" xlink:href="#linear-gradient-5"></linearGradient><linearGradient id="linear-gradient-8" x1="0.509" y1="0.001" x2="0.509" y2="1.006" xlink:href="#linear-gradient-4"></linearGradient><linearGradient id="linear-gradient-11" x1="0.491" y1="0.001" x2="0.491" y2="1.006" xlink:href="#linear-gradient-5"></linearGradient><linearGradient id="linear-gradient-13" x1="0.498" y1="0.027" x2="0.498" y2="2.224" xlink:href="#linear-gradient-4"></linearGradient><linearGradient id="linear-gradient-14" x1="0.494" y1="0.021" x2="0.494" y2="1.962" xlink:href="#linear-gradient-5"></linearGradient><linearGradient id="linear-gradient-15" x1="0.496" y1="0.027" x2="0.496" y2="2.224" xlink:href="#linear-gradient-4"></linearGradient><linearGradient id="linear-gradient-16" x1="0.498" y1="0.027" x2="0.498" y2="2.224" xlink:href="#linear-gradient-5"></linearGradient><linearGradient id="linear-gradient-17" x1="0.491" y1="0.027" x2="0.491" y2="2.224" xlink:href="#linear-gradient-4"></linearGradient><linearGradient id="linear-gradient-18" x1="0.493" y1="0.021" x2="0.493" y2="1.962" xlink:href="#linear-gradient-5"></linearGradient><linearGradient id="linear-gradient-19" x1="0.496" y1="0.027" x2="0.496" y2="2.224" xlink:href="#linear-gradient-4"></linearGradient><linearGradient id="linear-gradient-20" x1="0.506" y1="0.027" x2="0.506" y2="2.224" xlink:href="#linear-gradient-5"></linearGradient><linearGradient id="linear-gradient-21" x1="0.495" y1="0.027" x2="0.495" y2="2.224" xlink:href="#linear-gradient-4"></linearGradient><linearGradient id="linear-gradient-22" x1="1174.719" y1="0.496" x2="1175.727" y2="0.496" gradientUnits="objectBoundingBox"><stop offset="0" stop-color="#416d99"></stop><stop offset="1" stop-color="#244d77"></stop></linearGradient><linearGradient id="linear-gradient-23" x1="945.562" y1="0.504" x2="946.581" y2="0.504" xlink:href="#linear-gradient-22"></linearGradient><linearGradient id="linear-gradient-24" x1="933.912" y1="0.504" x2="934.919" y2="0.504" xlink:href="#linear-gradient-22"></linearGradient><linearGradient id="linear-gradient-25" x1="926.855" y1="0.509" x2="927.842" y2="0.509" xlink:href="#linear-gradient-22"></linearGradient><linearGradient id="linear-gradient-26" x1="1170.652" y1="0.488" x2="1171.661" y2="0.488" xlink:href="#linear-gradient-22"></linearGradient><linearGradient id="linear-gradient-27" x1="2261.957" y1="0.513" x2="2262.973" y2="0.513" xlink:href="#linear-gradient-22"></linearGradient><linearGradient id="linear-gradient-28" x1="373.664" y1="0.475" x2="374.671" y2="0.475" xlink:href="#linear-gradient-22"></linearGradient><linearGradient id="linear-gradient-29" x1="395.374" y1="0.44" x2="396.379" y2="0.44" xlink:href="#linear-gradient-22"></linearGradient><linearGradient id="linear-gradient-30" x1="414.656" y1="0.405" x2="415.654" y2="0.405" xlink:href="#linear-gradient-22"></linearGradient><linearGradient id="linear-gradient-31" x1="409.558" y1="0.49" x2="410.559" y2="0.49" xlink:href="#linear-gradient-22"></linearGradient><linearGradient id="linear-gradient-32" x1="-1810.542" y1="0.48" x2="-1809.566" y2="0.48" xlink:href="#linear-gradient-22"></linearGradient><linearGradient id="linear-gradient-33" x1="-1803.569" y1="0.48" x2="-1802.593" y2="0.48" xlink:href="#linear-gradient-22"></linearGradient><linearGradient id="linear-gradient-34" x1="385.968" y1="0.492" x2="386.972" y2="0.492" xlink:href="#linear-gradient-22"></linearGradient><linearGradient id="linear-gradient-35" x1="314.877" y1="0.595" x2="315.874" y2="0.595" xlink:href="#linear-gradient-22"></linearGradient><linearGradient id="linear-gradient-36" x1="1349.441" y1="0.416" x2="1350.461" y2="0.416" xlink:href="#linear-gradient-4"></linearGradient><linearGradient id="linear-gradient-37" x1="788.14" y1="0.699" x2="787.667" y2="0.243" xlink:href="#linear-gradient-22"></linearGradient><linearGradient id="linear-gradient-38" x1="2276.145" y1="0.432" x2="2277.157" y2="0.432" xlink:href="#linear-gradient-22"></linearGradient><linearGradient id="linear-gradient-39" x1="648.2" y1="0.533" x2="647.852" y2="0.505" xlink:href="#linear-gradient-22"></linearGradient><linearGradient id="linear-gradient-40" x1="2357.114" y1="0.552" x2="2358.059" y2="0.552" xlink:href="#linear-gradient-22"></linearGradient><linearGradient id="linear-gradient-41" x1="844.144" y1="-28.218" x2="844.363" y2="-27.571" gradientUnits="objectBoundingBox"><stop offset="0" stop-color="#ee6b6b"></stop><stop offset="1" stop-color="#c43737"></stop></linearGradient><linearGradient id="linear-gradient-42" x1="1261.225" y1="0.514" x2="1261.178" y2="0.054" gradientUnits="objectBoundingBox"><stop offset="0" stop-color="#f9c7a5"></stop><stop offset="1" stop-color="#f9a395"></stop></linearGradient><linearGradient id="linear-gradient-43" x1="655.75" y1="0.471" x2="656.741" y2="0.471" xlink:href="#linear-gradient-22"></linearGradient><linearGradient id="linear-gradient-44" x1="708.343" y1="0.997" x2="708.343" y2="-0.004" gradientUnits="objectBoundingBox"><stop offset="0" stop-color="#fff"></stop><stop offset="1" stop-color="#f1f5fd"></stop></linearGradient><clipPath id="clip-_30_Marketplace"><rect width="310" height="200"></rect></clipPath></defs><g id="_30_Marketplace" data-name="30_Marketplace" clip-path="url(#clip-_30_Marketplace)"><rect id="Rectangle_1621" data-name="Rectangle 1621" width="310" height="200" rx="10" fill="#dbe6ff"></rect><g id="marketplace" transform="translate(29.3 -1.13)"><path id="Path_4755" data-name="Path 4755" d="M83.588,63.454c-7.327,9.42-22.679,23.028-26.168,20.236S63.7,62.757,71.028,53.336s13.258-11.165,16.747-8.374S90.915,54.034,83.588,63.454Z" transform="translate(126.919 64.995)" fill="url(#linear-gradient)"></path><path id="Path_4756" data-name="Path 4756" d="M79.332,52.168c-9.42,4.885-24.074,15.7-22.33,19.19s19.19-1.745,28.61-6.28c9.42-4.885,11.863-9.769,10.118-13.258S88.752,47.284,79.332,52.168Z" transform="translate(127.337 77.677)" fill="url(#linear-gradient-2)"></path><path id="Path_4757" data-name="Path 4757" d="M19.017,63.454c7.327,9.42,22.679,23.028,26.168,20.236S38.9,62.757,31.577,53.336,18.319,42.171,14.83,44.962,11.69,54.034,19.017,63.454Z" transform="translate(17.387 64.995)" fill="#eb943c"></path><path id="Path_4758" data-name="Path 4758" d="M27.771,52.168c9.42,4.885,24.074,15.7,22.33,19.19s-19.19-1.745-28.61-6.28C12.07,60.193,9.628,55.309,11.373,51.82,12.768,48.331,18.351,47.284,27.771,52.168Z" transform="translate(12.819 77.677)" fill="#646ee1"></path><path id="Path_4759" data-name="Path 4759" d="M5.7,54.3C9.189,64.418,61.525,72.443,125.374,72.443S241.559,64.418,245.048,54.3Z" transform="translate(0 91.246)" fill="#fff" opacity="0.234"></path><g transform="matrix(1, 0, 0, 1, -29.3, 1.13)" filter="url(#Path_4761)"><path id="Path_4761-2" data-name="Path 4761" d="M158.613,23.9H23.936A4.619,4.619,0,0,0,19.4,28.436v97a4.619,4.619,0,0,0,4.536,4.536H158.264a4.618,4.618,0,0,0,4.536-4.536V28.087A4.031,4.031,0,0,0,158.613,23.9Z" transform="translate(63.4 14.45)" fill="url(#linear-gradient-3)"></path></g><path id="Path_4762" data-name="Path 4762" d="M162.8,34.965V28.336a4.619,4.619,0,0,0-4.536-4.536H23.936A4.619,4.619,0,0,0,19.4,28.336v6.629Z" transform="translate(34.1 15.33)" fill="#fff"></path><circle id="Ellipse_397" data-name="Ellipse 397" cx="2.093" cy="2.093" r="2.093" transform="translate(59.431 42.968)" fill="#d5e3fb"></circle><circle id="Ellipse_398" data-name="Ellipse 398" cx="2.093" cy="2.093" r="2.093" transform="translate(66.758 42.968)" fill="#d5e3fb"></circle><circle id="Ellipse_399" data-name="Ellipse 399" cx="2.093" cy="2.093" r="2.093" transform="translate(74.085 42.968)" fill="#d5e3fb"></circle><g id="Group_4756" data-name="Group 4756" transform="translate(42.335 50.295)"><path id="Path_4763" data-name="Path 4763" d="M25.272,43.556h0A9.008,9.008,0,0,1,16.2,34.485V29.6H34.692v4.885A9.313,9.313,0,0,1,25.272,43.556Z" transform="translate(-16.2 -20.528)" fill="url(#linear-gradient-4)"></path><path id="Path_4764" data-name="Path 4764" d="M30.572,43.556h0A9.008,9.008,0,0,1,21.5,34.485V29.6H39.992v4.885A9.313,9.313,0,0,1,30.572,43.556Z" transform="translate(-3.008 -20.528)" fill="url(#linear-gradient-5)"></path><path id="Path_4765" data-name="Path 4765" d="M35.872,43.556h0A9.008,9.008,0,0,1,26.8,34.485V29.6H45.292v4.885A9.313,9.313,0,0,1,35.872,43.556Z" transform="translate(10.184 -20.528)" fill="url(#linear-gradient-4)"></path><path id="Path_4766" data-name="Path 4766" d="M41.42,43.556h0A9.313,9.313,0,0,1,32,34.485V29.6H50.492v4.885C50.841,39.369,46.654,43.556,41.42,43.556Z" transform="translate(23.127 -20.528)" fill="url(#linear-gradient-7)"></path><path id="Path_4767" data-name="Path 4767" d="M46.72,43.556h0a9.313,9.313,0,0,1-9.42-9.072V29.6H55.792v4.885C56.141,39.369,51.954,43.556,46.72,43.556Z" transform="translate(36.319 -20.528)" fill="url(#linear-gradient-8)"></path><path id="Path_4768" data-name="Path 4768" d="M51.771,43.556h0A9.008,9.008,0,0,1,42.7,34.485V29.6H61.192v4.885A9.313,9.313,0,0,1,51.771,43.556Z" transform="translate(49.76 -20.528)" fill="url(#linear-gradient-5)"></path><path id="Path_4769" data-name="Path 4769" d="M57.072,43.556h0A9.008,9.008,0,0,1,48,34.485V29.6H66.492v4.885A9.313,9.313,0,0,1,57.072,43.556Z" transform="translate(62.952 -20.528)" fill="url(#linear-gradient-4)"></path><path id="Path_4770" data-name="Path 4770" d="M62.372,43.556h0A9.008,9.008,0,0,1,53.3,34.485V29.6H71.792v4.885A9.313,9.313,0,0,1,62.372,43.556Z" transform="translate(76.143 -20.528)" fill="url(#linear-gradient-11)"></path><path id="Path_4771" data-name="Path 4771" d="M67.92,43.556h0a9.313,9.313,0,0,1-9.42-9.072V29.6H76.992v4.885C77.341,39.369,73.154,43.556,67.92,43.556Z" transform="translate(89.086 -20.528)" fill="url(#linear-gradient-8)"></path><g id="Group_4755" data-name="Group 4755" transform="translate(0)"><path id="Path_4772" data-name="Path 4772" d="M34.692,36.072,43.763,27h-15.7L16.2,36.072Z" transform="translate(-16.2 -27)" fill="url(#linear-gradient-13)"></path><path id="Path_4773" data-name="Path 4773" d="M39.992,36.072,46.621,27H30.572L21.5,36.072Z" transform="translate(-3.008 -27)" fill="url(#linear-gradient-14)"></path><path id="Path_4774" data-name="Path 4774" d="M45.292,36.072,49.13,27h-15.7L26.8,36.072Z" transform="translate(10.184 -27)" fill="url(#linear-gradient-15)"></path><path id="Path_4775" data-name="Path 4775" d="M50.592,36.072,51.639,27h-15.7L32.1,36.072Z" transform="translate(23.376 -27)" fill="url(#linear-gradient-16)"></path><path id="Path_4776" data-name="Path 4776" d="M55.892,36.072,54.5,27H38.447L37.4,36.072Z" transform="translate(36.568 -27)" fill="url(#linear-gradient-17)"></path><path id="Path_4777" data-name="Path 4777" d="M62.188,36.072,58,27H42.3l1.4,9.072Z" transform="translate(48.764 -27)" fill="url(#linear-gradient-18)"></path><path id="Path_4778" data-name="Path 4778" d="M69.479,36.072,62.5,27H46.8l4.187,9.072Z" transform="translate(59.965 -27)" fill="url(#linear-gradient-19)"></path><path id="Path_4779" data-name="Path 4779" d="M76.421,36.072,67.35,27H51.3l6.978,9.072Z" transform="translate(71.165 -27)" fill="url(#linear-gradient-20)"></path><path id="Path_4780" data-name="Path 4780" d="M83.812,36.072,71.6,27H55.9l9.071,9.072Z" transform="translate(82.615 -27)" fill="url(#linear-gradient-21)"></path></g></g><g id="Group_4758" data-name="Group 4758" transform="translate(63.618 80.65)" opacity="0.7"><rect id="Rectangle_1626" data-name="Rectangle 1626" width="55.825" height="55.825" rx="3" fill="#d5e3fb"></rect><rect id="Rectangle_1627" data-name="Rectangle 1627" width="24.074" height="24.074" rx="3" transform="translate(64.547)" fill="#d5e3fb"></rect><rect id="Rectangle_1628" data-name="Rectangle 1628" width="24.074" height="24.074" rx="3" transform="translate(64.547 31.75)" fill="#d5e3fb"></rect><g id="Group_4757" data-name="Group 4757" transform="translate(99.438)"><rect id="Rectangle_1629" data-name="Rectangle 1629" width="24.074" height="24.074" rx="3" fill="#d5e3fb"></rect><rect id="Rectangle_1630" data-name="Rectangle 1630" width="24.074" height="24.074" rx="3" transform="translate(0 31.75)" fill="#d5e3fb"></rect></g></g><g id="Group_4779" data-name="Group 4779" transform="translate(78.01 90.942)"><path id="Path_4781" data-name="Path 4781" d="M45.169,59.661h0L35.4,47.8v-.7h.7l9.42,11.863c0,.349,0,.349-.349.7Z" transform="translate(-4.086 -6.573)" fill="url(#linear-gradient-22)"></path><path id="Path_4782" data-name="Path 4782" d="M48.612,62.15h0L36.4,46.8v-.7h.7l11.863,15c0,.7,0,.7-.349,1.047Z" transform="translate(-1.597 -9.062)" fill="url(#linear-gradient-23)"></path><path id="Path_4783" data-name="Path 4783" d="M50.212,62.15h0L38,46.8v-.7h.7l11.863,15c.349.7,0,.7-.349,1.047Z" transform="translate(2.386 -9.062)" fill="url(#linear-gradient-24)"></path><path id="Path_4784" data-name="Path 4784" d="M51.812,61.8h0L39.6,46.8v-.7h.7l11.863,15c.349.349.349.7-.349.7Z" transform="translate(6.368 -9.062)" fill="url(#linear-gradient-25)"></path><path id="Path_4785" data-name="Path 4785" d="M51.069,58.761h0L41.3,46.9v-.7H42l9.42,11.863a1.081,1.081,0,0,1-.349.7Z" transform="translate(10.599 -8.813)" fill="url(#linear-gradient-26)"></path><g id="Group_4759" data-name="Group 4759" transform="translate(57.831 37.038)"><path id="Path_4786" data-name="Path 4786" d="M47.885,52.729h0L43,46.8v-.7h.7l4.536,5.582c0,.7,0,.7-.349,1.047Z" transform="translate(-43 -46.1)" fill="url(#linear-gradient-27)"></path></g><g id="Group_4760" data-name="Group 4760" transform="translate(31.663 40.527)"><path id="Path_4787" data-name="Path 4787" d="M66.9,47.8H35.849a.342.342,0,0,1-.349-.349l.349-.349H66.9a.342.342,0,0,1,.349.349Z" transform="translate(-35.5 -47.1)" fill="url(#linear-gradient-28)"></path></g><g id="Group_4761" data-name="Group 4761" transform="translate(32.71 44.714)"><path id="Path_4788" data-name="Path 4788" d="M65.457,49H36.149a.342.342,0,0,1-.349-.349l.349-.349H65.457a.342.342,0,0,1,.349.349Z" transform="translate(-35.8 -48.3)" fill="url(#linear-gradient-29)"></path></g><g id="Group_4762" data-name="Group 4762" transform="translate(33.408 48.9)"><path id="Path_4789" data-name="Path 4789" d="M64.261,50.2H36.349A.342.342,0,0,1,36,49.849l.349-.349H64.261a.349.349,0,0,1,0,.7Z" transform="translate(-36 -49.5)" fill="url(#linear-gradient-30)"></path></g><g id="Group_4763" data-name="Group 4763" transform="translate(34.803 37.735)"><path id="Path_4790" data-name="Path 4790" d="M59.428,61.652H36.749A.342.342,0,0,1,36.4,61.3l.349-.349H59.428a4.088,4.088,0,0,0,3.838-3.14l1.4-11.165a.349.349,0,0,1,.7,0l-1.4,11.165C63.266,59.907,61.521,61.652,59.428,61.652Z" transform="translate(-36.4 -46.3)" fill="url(#linear-gradient-31)"></path></g><g id="Group_4766" data-name="Group 4766" transform="translate(51.899 61.112)"><circle id="Ellipse_400" data-name="Ellipse 400" cx="2.442" cy="2.442" r="2.442" transform="translate(0 0)" fill="url(#linear-gradient-32)"></circle><g id="Group_4764" data-name="Group 4764" transform="translate(1.047 1.047)"><circle id="Ellipse_401" data-name="Ellipse 401" cx="1.396" cy="1.396" r="1.396" fill="#fff"></circle></g></g><g id="Group_4769" data-name="Group 4769" transform="translate(34.803 61.112)"><circle id="Ellipse_402" data-name="Ellipse 402" cx="2.442" cy="2.442" r="2.442" transform="translate(0 0)" fill="url(#linear-gradient-33)"></circle><g id="Group_4767" data-name="Group 4767" transform="translate(1.047 1.047)"><circle id="Ellipse_403" data-name="Ellipse 403" cx="1.396" cy="1.396" r="1.396" fill="#fff"></circle></g></g><g id="Group_4770" data-name="Group 4770" transform="translate(28.174 31.455)"><path id="Path_4793" data-name="Path 4793" d="M64.855,73.11H41.827a3.353,3.353,0,0,1-3.14-2.093,3.141,3.141,0,0,1,.349-3.489l1.4-1.745L34.5,45.2c0-.349,0-.7.349-.7s.7,0,.7.349l5.931,20.934v.7l-1.745,2.093a1.644,1.644,0,0,0-.349,2.093,1.919,1.919,0,0,0,1.745,1.047H64.157a.75.75,0,0,1,.7.7C65.552,72.761,65.2,73.11,64.855,73.11Z" transform="translate(-34.5 -44.5)" fill="url(#linear-gradient-34)"></path></g><g id="Group_4771" data-name="Group 4771" transform="translate(28.174 37.038)"><path id="Path_4794" data-name="Path 4794" d="M71.484,47.5H35.2a.7.7,0,0,1,0-1.4H71.484a.75.75,0,0,1,.7.7C71.833,47.147,71.833,47.5,71.484,47.5Z" transform="translate(-34.5 -46.1)" fill="url(#linear-gradient-35)"></path></g><g id="Group_4772" data-name="Group 4772" transform="translate(23.987 30.757)"><path id="Path_4795" data-name="Path 4795" d="M38.882,46.742H34.347A.925.925,0,0,1,33.3,45.7v-.349A.925.925,0,0,1,34.347,44.3h4.536a.925.925,0,0,1,1.047,1.047V45.7A1.573,1.573,0,0,1,38.882,46.742Z" transform="translate(-33.3 -44.3)" fill="url(#linear-gradient-36)"></path></g><g id="Group_4773" data-name="Group 4773" transform="translate(11.427 29.574)"><path id="Path_4796" data-name="Path 4796" d="M38.074,78.639V73.755a62.217,62.217,0,0,0-1.047-10.467,33.139,33.139,0,0,0-3.489-9.42,19.71,19.71,0,0,0-2.791-3.838A17.009,17.009,0,0,1,29.7,47.587a6.8,6.8,0,0,1,.349-2.791,2.714,2.714,0,0,1,2.791-.7,5.505,5.505,0,0,1,2.791,1.745,26.52,26.52,0,0,1,3.14,5.582,37.342,37.342,0,0,1,2.442,11.514,88.674,88.674,0,0,1-.7,10.816c-.349,2.791-.7,4.885-.7,4.885Z" transform="translate(-29.7 -43.961)" fill="url(#linear-gradient-37)"></path></g><path id="Path_4797" data-name="Path 4797" d="M32.349,53.9,32,54.6c0,.349,0,.7.349.7l3.14.349c.349,0,.7-.7.349-.7l-1.745-.7Z" transform="translate(-12.549 10.352)" fill="url(#linear-gradient-38)"></path><g id="Group_4774" data-name="Group 4774" transform="translate(0 29.711)"><path id="Path_4798" data-name="Path 4798" d="M26.7,76.8a38.4,38.4,0,0,0,2.093-4.187,49.554,49.554,0,0,0,3.14-9.42,55.977,55.977,0,0,0,1.745-10.118,43.325,43.325,0,0,0,.349-5.234c0-1.745,1.745-3.838,3.489-3.838s3.489,2.791,3.14,4.536a53.737,53.737,0,0,1-1.047,5.582A91.7,91.7,0,0,1,36.12,64.585c-1.745,3.489-3.489,6.978-5.234,9.071A19.711,19.711,0,0,1,28.1,77.495Z" transform="translate(-25.741 -44)" fill="url(#linear-gradient-39)"></path><path id="Path_4799" data-name="Path 4799" d="M27.384,53.4l-.7.349c-.349,0-.349.7,0,.7l2.791,1.745c.349.349,1.047-.349.7-.7l-1.4-1.4Z" transform="translate(-26.425 -20.603)" fill="url(#linear-gradient-40)"></path></g><g id="Group_4775" data-name="Group 4775" transform="translate(5.158 10.701)"><path id="Path_4800" data-name="Path 4800" d="M39.405,58.608c1.047,3.14-7.676,6.28-8.723,2.791-.349-1.4-2.093-5.931-2.442-10.467-.7-4.536-.349-9.42,1.4-11.165a4.134,4.134,0,0,1,4.885-.7c4.187,2.791,4.536,4.885,4.187,7.676C38.708,49.537,37.661,53.374,39.405,58.608Z" transform="translate(-27.903 -38.552)" fill="url(#linear-gradient-41)"></path></g><g id="Group_4776" data-name="Group 4776" transform="translate(15.265 24.826)"><path id="Path_4801" data-name="Path 4801" d="M30.8,45.391a6.024,6.024,0,0,1,1.4,1.047,7.627,7.627,0,0,0,1.745,1.047,4.959,4.959,0,0,0,2.093.7,4.425,4.425,0,0,0,2.093.349c.7,0,1.4.349,1.745,0h1.745c2.791,1.4,1.4-1.745,0-1.745h-1.4a15.112,15.112,0,0,0-1.745-.349c-.7,0-1.047-.349-1.745-.7s-1.047-.7-1.745-1.047c-.349-.349-1.047-.7-1.4-1.047L32.545,42.6Z" transform="translate(-30.8 -42.6)" fill="#f9a395"></path></g><g id="Group_4777" data-name="Group 4777" transform="translate(6.959 13.673)"><path id="Path_4802" data-name="Path 4802" d="M32.887,41.136s1.047,2.791,2.442,5.582a30.681,30.681,0,0,0,2.093,3.489l1.047,1.047.349.349L36.725,53.7a.342.342,0,0,1-.349-.349L35.33,52.3a31.456,31.456,0,0,1-3.14-3.489A41.242,41.242,0,0,1,28.7,43.229c-.7-1.745,0-3.14,1.047-3.489C31.143,39.043,32.538,39.391,32.887,41.136Z" transform="translate(-28.419 -39.403)" fill="#ee6b6b"></path></g><g id="Group_4778" data-name="Group 4778" transform="translate(7.3)"><path id="Path_4803" data-name="Path 4803" d="M35.18,37.149,29.249,36.8,28.9,43.778c2.093,2.442,5.582,2.442,3.489.349V43.08h.7c1.4,0,2.791-1.047,2.442-2.093Z" transform="translate(-27.564 -32.21)" fill="url(#linear-gradient-42)"></path><path id="Path_4804" data-name="Path 4804" d="M28.806,38.33c-.7,1.745,0,4.187.7,5.931,0,.349,0,.349.349.7a1.218,1.218,0,0,0,.7.349.342.342,0,0,0,.349-.349c.7-1.047-.349-3.838,1.047-3.838,1.047,0,0,2.442,1.4,2.442.7-.349.349-2.093,2.093-1.745.7,0,1.4.349,2.093.349a4.425,4.425,0,0,0,2.093.349,2.211,2.211,0,0,0,1.745-2.093,3.167,3.167,0,0,0-1.047-2.442,9.1,9.1,0,0,0-5.931-2.442A5.663,5.663,0,0,0,28.806,38.33Z" transform="translate(-28.517 -35.485)" fill="url(#linear-gradient-43)"></path></g></g><path id="Path_4806" data-name="Path 4806" d="M62.3,45.876H87.77a3.5,3.5,0,0,0-3.489-3.489,1.282,1.282,0,0,0-1.047.349A6.822,6.822,0,0,0,76.605,38.2a6.893,6.893,0,0,0-6.28,4.187,6.468,6.468,0,0,0-2.442-.7C64.742,40.991,62.649,43.085,62.3,45.876Z" transform="translate(140.88 51.172)" fill="url(#linear-gradient-44)"></path></g></g></svg>