<svg xmlns="http://www.w3.org/2000/svg" xmlns:xlink="http://www.w3.org/1999/xlink" width="310" height="200" viewBox="0 0 310 200"><defs><filter id="Rectangle_1619" x="40" y="56" width="100" height="100" filterUnits="userSpaceOnUse"><feOffset dy="6" input="SourceAlpha"></feOffset><feGaussianBlur stdDeviation="5" result="blur"></feGaussianBlur><feFlood flood-color="#6dac79" flood-opacity="0.149"></feFlood><feComposite operator="in" in2="blur"></feComposite><feComposite in="SourceGraphic"></feComposite></filter><filter id="Rectangle_1620" x="170" y="56" width="100" height="100" filterUnits="userSpaceOnUse"><feOffset dy="6" input="SourceAlpha"></feOffset><feGaussianBlur stdDeviation="5" result="blur-2"></feGaussianBlur><feFlood flood-color="#6dac79" flood-opacity="0.149"></feFlood><feComposite operator="in" in2="blur-2"></feComposite><feComposite in="SourceGraphic"></feComposite></filter><clipPath id="clip-_25_Type_Linking"><rect width="310" height="200"></rect></clipPath></defs><g id="_25_Type_Linking" data-name="25_Type Linking" clip-path="url(#clip-_25_Type_Linking)"><rect id="Rectangle_1621" data-name="Rectangle 1621" width="310" height="200" rx="10" fill="#daf0d9"></rect><g transform="matrix(1, 0, 0, 1, 0, 0)" filter="url(#Rectangle_1619)"><rect id="Rectangle_1619-2" data-name="Rectangle 1619" width="70" height="70" rx="8" transform="translate(55 65)" fill="#fff"></rect></g><g transform="matrix(1, 0, 0, 1, 0, 0)" filter="url(#Rectangle_1620)"><rect id="Rectangle_1620-2" data-name="Rectangle 1620" width="70" height="70" rx="8" transform="translate(185 65)" fill="#fff"></rect></g><g id="Group_2503" data-name="Group 2503" transform="translate(70 77)"><g id="Group_2502" data-name="Group 2502" transform="translate(0)"><path id="Path_2333" data-name="Path 2333" d="M494.311,256.379a20.7,20.7,0,0,0,3.954-13.416,20.016,20.016,0,0,0-39.965,1.553,20.285,20.285,0,0,0,4.1,12.145,109.869,109.869,0,0,0,14.263,13.416h0c.141.141.282.141.282.282h0a2.136,2.136,0,0,0,2.683-.283s9.462-7.2,14.263-13.416h0a1.085,1.085,0,0,0,.424-.282Z" transform="translate(-458.3 -224.59)" fill="#f9840f"></path><ellipse id="Ellipse_182" data-name="Ellipse 182" cx="15.394" cy="15.39" rx="15.394" ry="15.39" transform="translate(4.518 4.533)" fill="#fff"></ellipse></g><path id="Path_2334" data-name="Path 2334" d="M482.108,238.565a1.844,1.844,0,0,0-.988-1.694,9.5,9.5,0,0,1-1.553-.988c-1.271-.706-2.4-1.553-3.671-2.259a2.335,2.335,0,0,0-2.683,0l-4.236,2.542c-.282.282-.706.424-.988.706a2.153,2.153,0,0,0-.988,1.694v7.483a1.93,1.93,0,0,0,1.977,1.977h11.154a1.781,1.781,0,0,0,1.835-1.835v-6.777Zm-6.212,4.377v3.389h-2.4v-3.389Zm4.518,1.13v2.118c0,.282,0,.282-.282.282h-2.683v-4.236a.748.748,0,0,0-.847-.847h-3.953a.748.748,0,0,0-.847.847v4.236h-2.683c-.141,0-.282,0-.282-.282v-7.625c0-.141,0-.141.141-.282a20.88,20.88,0,0,1,1.836-1.13l3.389-2.118a1.206,1.206,0,0,1,.988,0c.988.565,1.835,1.13,2.824,1.694.847.424,1.553.988,2.4,1.412.141.141.141.141.141.282-.141,1.977-.141,3.812-.141,5.648Z" transform="translate(-454.713 -221.039)" fill="#f9840f"></path></g><g id="Group_2514" data-name="Group 2514" transform="translate(200 77)"><g id="Group_2513" data-name="Group 2513" transform="translate(0)"><path id="Path_2345" data-name="Path 2345" d="M571.111,386.379a20.694,20.694,0,0,0,3.954-13.416,20.016,20.016,0,0,0-39.965,1.553,20.284,20.284,0,0,0,4.1,12.145,109.865,109.865,0,0,0,14.263,13.416h0c.141.141.282.141.282.282h0a2.137,2.137,0,0,0,2.683-.282s9.462-7.2,14.263-13.416h0C570.97,386.52,571.111,386.52,571.111,386.379Z" transform="translate(-535.1 -354.589)" fill="#20b73c"></path><ellipse id="Ellipse_186" data-name="Ellipse 186" cx="15.394" cy="15.39" rx="15.394" ry="15.39" transform="translate(4.659 4.533)" fill="#fff"></ellipse></g><path id="Path_2346" data-name="Path 2346" d="M556.639,363.072a.141.141,0,0,0-.141.141l-2.541,2.541a1.108,1.108,0,0,0,0,1.553l1.13,1.13a1.289,1.289,0,0,0,1.694,0l2.542-2.541.141-.141a5.039,5.039,0,0,1-1.412,6.071,5.6,5.6,0,0,1-5.365.988c-.141,0-.141,0-.282.141-1.271,1.553-2.541,3.106-3.812,4.8a2.927,2.927,0,0,1-2.965.988,2.868,2.868,0,0,1-2.118-2.4,2.824,2.824,0,0,1,1.13-2.683c.988-.706,1.835-1.553,2.824-2.259.565-.424,1.13-.988,1.694-1.412.141-.141.141-.141.141-.424a6.126,6.126,0,0,1,.706-4.942,4.87,4.87,0,0,1,4.518-2.118,3.67,3.67,0,0,1,2.118.565ZM546.332,377.05a.988.988,0,1,0-.988-.988,1.061,1.061,0,0,0,.988.988Z" transform="translate(-531.644 -351.334)" fill="#20b73c"></path></g><g id="Group_4753" data-name="Group 4753" transform="translate(-196.797 -356.832)"><path id="Union_13" data-name="Union 13" d="M26.519,26.191a8.975,8.975,0,0,1-8.948-8.949V16.38H3.171a3.17,3.17,0,1,1,0-6.34h14.4V8.949A8.974,8.974,0,0,1,26.519,0H43.411a8.975,8.975,0,0,1,8.949,8.949V10.04H66.83a3.17,3.17,0,0,1,0,6.34H52.359v.862a8.976,8.976,0,0,1-8.949,8.949Zm-3.645-8.949a3.694,3.694,0,0,0,3.645,3.645H43.411a3.694,3.694,0,0,0,3.645-3.645V16.38H45a3.17,3.17,0,1,1,0-6.34h2.051V8.949A3.694,3.694,0,0,0,43.411,5.3H26.519a3.694,3.694,0,0,0-3.645,3.645V10.04H25a3.17,3.17,0,0,1,0,6.34H22.874Z" transform="translate(316.797 443.832)" fill="#2458eb" stroke="rgba(0,0,0,0)" stroke-miterlimit="10" stroke-width="1"></path></g></g></svg>